<svg xmlns="http://www.w3.org/2000/svg" viewBox="0 0 1000 1000" width="1000" height="1000">
  <defs>
    <style>
      .bg { fill: #ffffff; }
      .logo { fill: #121219; }
      @media (prefers-color-scheme: dark) {
        .bg { fill: #050505; }
        .logo { fill: #EDEDED; }
      }
    </style>
    <clipPath id="rounded">
      <rect width="1000" height="1000" rx="200" ry="200"/>
    </clipPath>
  </defs>
  <g clip-path="url(#rounded)">
    <rect class="bg" width="1000" height="1000"/>
    <g transform="translate(150,150) scale(0.7)">
      <path class="logo" d="M401.94,237.18L1.67,845.05s-19.27,36.39,73.01,73.65c0,0,74.79,23.33,123.1-39.87,0,0,26.85-74.31,61.58-69.4,0,0,200.59,111.45,317.76,51.26,0,0,71.58-30.5,94.32-88.75,0,0-223.46,41.04-311.42-113.63,0,0-67.19-96.59,47.03-278.58.11-.17.21-.32.33-.48,1.49-1.95,107-191.13,117.89-210.32,26.16-46.05-94.21,24.01-123.34,68.24Z"/>
      <path class="logo" d="M813.14,153.86c49.86,182.25,185.7,665.3,186.75,669.13,0,.02,0,.03.01.05.18,1.14,5.6,40.64-92.25,47.36,0,0-78.34-1.01-104.67-76.07,0,0-2.48-78.85-36.95-85.05-.05,0-.1-.01-.16,0-4.63.89-226.16,42.77-317.92-49.8,0,0-57.02-49.82-61.98-111.11-.09-1.09,1.07-1.86,2.05-1.36,22.19,11.35,205.63,99.74,329.08-12.63,0,0,93.8-70.99,41.67-279.37-.06-.23-.13-.46-.21-.69-.9-2.55-26.5-135.31-30.87-156.74-10.59-51.89,71.46,5.2,85.44,56.28Z"/>
    </g>
  </g>
</svg>